<?xml version="1.0" encoding="UTF-8"?>
<!DOCTYPE svg PUBLIC "-//W3C//DTD SVG 1.1//EN" "http://www.w3.org/Graphics/SVG/1.1/DTD/svg11.dtd">
<!-- Creator: CorelDRAW 2021 (64-Bit) -->
<svg xmlns="http://www.w3.org/2000/svg" xml:space="preserve" width="6.66666in" height="6.66666in" version="1.1" style="shape-rendering:geometricPrecision; text-rendering:geometricPrecision; image-rendering:optimizeQuality; fill-rule:evenodd; clip-rule:evenodd"
viewBox="0 0 6666.66 6666.66"
 xmlns:xlink="http://www.w3.org/1999/xlink"
 xmlns:xodm="http://www.corel.com/coreldraw/odm/2003">
 <defs>
  <style type="text/css">
   <![CDATA[
    .str0 {stroke:#FFCC00;stroke-width:6.94;stroke-linecap:round;stroke-linejoin:round;stroke-miterlimit:2.61313}
    .fil0 {fill:#003399}
    .fil1 {fill:#FFCC00}
   ]]>
  </style>
 </defs>
 <g id="Layer_x0020_1">
  <metadata id="CorelCorpID_0Corel-Layer"/>
  <g id="_2390255376416">
   <path class="fil0" d="M3584.41 3153.56c0,100.58 -81.56,182.14 -182.14,182.14 -100.59,0 -182.14,-81.56 -182.14,-182.14 0,-100.59 81.56,-182.14 182.14,-182.14 100.58,0 182.14,81.56 182.14,182.14zm1473.03 652.97l0 -521.91 134.27 0 2.7 88.07c13,-30.68 33.03,-54.32 59.92,-70.74 27.07,-16.6 59.56,-24.91 97.63,-24.91l10.1 0 0 117.85 -12.81 0c-20.76,0 -40.79,1.98 -59.91,5.78 -19.31,3.61 -36.64,10.1 -52.16,19.31 -15.52,9.02 -28.87,21.66 -40.24,37.9l0 348.66 -139.5 0zm-252.99 9.74c-53.42,0 -99.26,-10.83 -137.33,-32.3 -38.07,-21.66 -67.13,-52.7 -87.35,-93.3 -20.03,-40.6 -30.14,-89.33 -30.14,-146.35 0,-55.22 9.93,-102.87 29.42,-142.75 19.49,-39.88 47.82,-70.56 84.82,-92.22 37,-21.48 81.21,-32.3 132.82,-32.3 73.99,0 132.28,22.74 174.87,68.22 42.77,45.3 64.07,110.09 64.07,194.18 0,4.33 -0.18,10.11 -0.54,17.5 -0.36,7.22 -0.72,12.81 -1.08,16.78l-343.61 0c0.72,25.09 4.69,48.37 12.27,69.66 7.58,21.47 19.67,38.62 36.28,51.79 16.6,13 38.44,19.49 65.51,19.49 27.97,0 49.99,-6.68 66.41,-20.21 16.42,-13.54 24.72,-33.74 25.08,-60.46l138.59 0c-1.8,40.61 -12.45,74.53 -31.94,101.6 -19.67,27.07 -46.38,47.28 -80.12,60.64 -33.93,13.35 -73.28,20.03 -118.03,20.03zm-113.15 -331.33l205.19 0c-1.08,-37 -10.65,-64.79 -28.87,-83.2 -18.04,-18.23 -41.87,-27.43 -71.46,-27.43 -29.78,0 -53.78,9.38 -72.54,27.97 -18.59,18.77 -29.42,46.38 -32.3,82.65zm-455.84 331.33c-37,0 -70.38,-9.56 -100.16,-28.87 -29.77,-19.13 -53.59,-48.37 -71.46,-87.71 -17.69,-39.34 -26.71,-89.15 -26.71,-149.6 0,-62.26 9.02,-113.33 26.71,-153.58 17.87,-40.24 42.41,-70.2 73.44,-89.87 31.22,-19.67 67.14,-29.6 107.74,-29.6 35.91,0 65.87,7.58 90.06,22.56 24.18,14.98 43.49,34.29 57.93,58.29l0 -262.75 135.35 0 0 711.39 -129.57 0 -5.77 -73.81c-17.33,25.81 -38.26,46.02 -62.98,61 -24.54,14.98 -56.13,22.56 -94.56,22.56zm34.29 -107.38c28.69,0 53.06,-8.48 73.27,-25.44 20.21,-16.96 35.19,-36.45 44.75,-58.29l0 -155.02c-9.93,-23.82 -24.36,-44.21 -43.13,-60.82 -18.95,-16.6 -40.61,-24.9 -65.33,-24.9 -33.39,0 -58.29,13.89 -74.54,41.87 -16.24,27.8 -24.36,68.76 -24.36,122.72 0,53.42 7.76,93.3 23.1,120.01 15.34,26.53 37.36,39.88 66.23,39.88zm-1793.26 107.38c-49.27,0 -87.35,-16.43 -113.87,-49.27 -26.71,-32.85 -39.88,-79.77 -39.88,-140.94l0 -341.44 139.5 0 0 325.93c0,18.41 2.34,34.46 6.85,48.36 4.69,13.9 12.09,24.73 22.56,32.49 10.29,7.76 23.82,11.73 40.43,11.73 25.63,0 47.46,-6.5 65.33,-19.31 17.68,-12.81 33.57,-28.16 47.28,-46.2l0 -352.99 140.04 0 0 521.91 -135.35 0 -2.17 -73.81c-16.06,21.47 -38.26,40.78 -66.59,57.93 -28.15,17.14 -62.81,25.63 -104.13,25.63zm-488.14 0c-37,0 -70.38,-9.56 -100.16,-28.87 -29.77,-19.13 -53.59,-48.37 -71.46,-87.71 -17.69,-39.34 -26.71,-89.15 -26.71,-149.6 0,-62.26 9.02,-113.33 26.71,-153.58 17.87,-40.24 42.41,-70.2 73.45,-89.87 31.22,-19.67 67.13,-29.6 107.74,-29.6 35.91,0 65.87,7.58 90.05,22.56 24.18,14.98 43.49,34.29 57.93,58.29l0 -262.75 135.35 0 0 711.39 -129.57 0 -5.78 -73.81c-17.33,25.81 -38.26,46.02 -62.98,61 -24.54,14.98 -56.12,22.56 -94.56,22.56zm34.29 -107.38c28.7,0 53.06,-8.48 73.27,-25.44 20.21,-16.96 35.19,-36.45 44.75,-58.29l0 -155.02c-9.93,-23.82 -24.36,-44.21 -43.13,-60.82 -18.94,-16.6 -40.61,-24.9 -65.33,-24.9 -33.39,0 -58.29,13.89 -74.54,41.87 -16.24,27.8 -24.36,68.76 -24.36,122.72 0,53.42 7.76,93.3 23.1,120.01 15.34,26.53 37.36,39.88 66.23,39.88zm-718.05 97.63l0 -711.39 477.87 0 0 123.26 -329.35 0 0 164.94 298.13 0 0 118.93 -298.13 0 0 181.01 329.35 0 0 123.26 -477.87 0zm2404.16 -410.09c18.4,-13.17 40.24,-19.67 65.5,-19.67 16.6,0 29.97,3.79 39.89,11.55 10.11,7.76 17.5,18.58 22.37,32.84 4.7,14.08 7.05,30.5 7.05,49.28l0 323.75 138.59 0 0 -340.36c0,-61.72 -13.53,-108.82 -40.43,-140.93 -27.06,-32.13 -65.69,-48.19 -116.03,-48.19 -35.63,0 -65.71,6.06 -90.26,18.28 -18.12,46.62 -45.75,88.48 -80.5,123.22 -37.37,37.37 -82.99,66.5 -133.87,84.43l0 31.04 0.32 0 0 205.73 -0.32 0 0 66.77 139.5 0 0 -350.11c13.9,-18.76 29.77,-34.65 48.19,-47.64zm-371.45 125.24l0 205.73 0 67.19 129.95 0 -0.02 -67.19 0.02 -205.73 0 -16.7c-21.07,3.87 -42.78,5.89 -64.97,5.89 -22.19,0 -43.91,-2.02 -64.98,-5.89l0 16.7zm-343.74 -31.75l284.41 0 0 -1.28c-48.66,-18.06 -92.33,-46.42 -128.35,-82.43 -10.72,-10.72 -20.77,-22.13 -30.06,-34.14l-126 0 0 -166.02 55.24 0c-2.54,-17.13 -3.84,-34.65 -3.84,-52.5 0,-24.22 2.42,-47.88 7.01,-70.76l-206.94 0 0 711.39 148.53 0 0 -304.26zm408.72 -33.2c167.42,0 303.17,-135.72 303.17,-303.17 0,-167.42 -135.76,-303.17 -303.17,-303.17 -167.42,0 -303.17,135.76 -303.17,303.17 0,167.46 135.75,303.17 303.17,303.17z"/>
   <path class="fil1 str0" d="M3402.28 2971.42c100.58,0 182.14,81.56 182.14,182.14 0,100.58 -81.56,182.14 -182.14,182.14 -100.59,0 -182.14,-81.56 -182.14,-182.14 0,-100.59 81.56,-182.14 182.14,-182.14zm303.17 182.14c0,-167.42 -135.76,-303.17 -303.17,-303.17 -167.42,0 -303.17,135.76 -303.17,303.17 0,167.46 135.75,303.17 303.17,303.17 167.42,0 303.17,-135.72 303.17,-303.17z"/>
   <path class="fil1 str0" d="M3467.24 3504.98c-21.07,3.87 -42.78,5.89 -64.97,5.89 -22.19,0 -43.91,-2.02 -64.98,-5.89l0 16.7 0 205.73 0 67.19 129.95 0 -0.02 -67.19 0.02 -205.73 0 -16.7z"/>
  </g>
 </g>
</svg>
